<svg clip-rule="evenodd" fill-rule="evenodd" stroke-linejoin="round" stroke-miterlimit="2" viewBox="0 0 207.68 38.265" xmlns="http://www.w3.org/2000/svg" width="2500" height="461"><path d="M0 0h207.68v38.265H0z" fill="none"/><path d="M96.925 26.89L69.946.546l-26.992 26.33-.002 11.18 26.991-26.333 26.98 26.347zm55.727-8.958c-4.604-1.784-8.08-2.148-11.052-2.664-2.434-.423-7.888-1.075-7.888-3.597.002-2.747 4.18-3.134 8.646-3.134 3.602.002 8.06.331 8.652 5.335l7.873.001C158.55 8.636 156.156.961 142.375.96c-15.24-.17-16.26 7.501-16.543 9.773-.377 4.33 1.931 8.205 6.187 9.855 4.604 1.785 8.513 2.234 11.07 2.664 2.66.445 7.87 1.126 7.87 3.598 0 2.602-3.79 3.134-8.647 3.134-3.63-.002-8.057-.33-8.65-5.335h-7.874c.334 5.236 2.763 12.911 16.507 12.913 14.836.155 16.132-6.889 16.545-9.773.334-4.332-1.932-8.205-6.188-9.856zM186.462.968c-14.144-.003-20.296 8.441-20.299 18.097-.003 9.658 6.145 18.494 20.291 18.498 14.145.004 20.345-8.83 20.348-18.487.002-9.657-6.195-18.104-20.34-18.108zm-71.527 36.245l-7.932-.002.006-35.918 7.932.001zM1.775 1.261l-.01 35.92 14.472.003c14.145.004 20.345-8.146 20.348-18.147 0-10-6.195-17.769-20.34-17.773zm184.656 28.707c-9.425-.003-12.236-5.199-12.235-10.9.002-5.7 2.842-10.507 12.24-10.505 9.399.002 12.334 4.996 12.332 10.51-.001 5.516-2.912 10.896-12.337 10.895zm-176.735-.24L9.7 8.718l6.519.002c9.398.001 12.333 4.406 12.332 10.316-.002 5.91-2.912 10.696-12.338 10.693H9.696z" fill="#e4007f"/></svg>