<svg id="Layer_1" data-name="Layer 1" xmlns="http://www.w3.org/2000/svg" viewBox="0 0 280 300"><defs><style>.cls-1{fill:#ed1c24;}.cls-2{fill:#fff;}.cls-3{fill:#231f20;}</style></defs><title>LEE KUM KEE Logo</title><path class="cls-1" d="M220.67,174.08C220.12,130,184.21,94,140,94s-80.12,36-80.67,80.07l18.25-.14c0-14.72,12.43-26.65,27.76-26.65s27.77,11.93,27.77,26.65Z"/><path class="cls-2" d="M159.49,159.4a9.21,9.21,0,0,0-1.94,1.51l-5.15.1v-1c.79-1.34,5.57-1.64,5.57-1.64l.13-1.13c1.17.56,1.69.16,1.69.16a2.73,2.73,0,0,1,1.64-2.73,14.76,14.76,0,0,1-8.58-4.62h8.32v-.45h0a1.71,1.71,0,0,0,0-.32v-.06h0c-.2-1.25-2-2.24-2.26-1.42a4.18,4.18,0,0,1-.88,1.42h-5.86V147.4s.24-.42.6-.24c0,0,.06-1-3.33-.73v2.79h-9.14v.83h5.93a14.52,14.52,0,0,1-5.7,7.29s5.8-2,8.91-4.9v3.2s2.79.73,2.73-.78v-4a27.5,27.5,0,0,0,3.15,4.1l.24.25a20.31,20.31,0,0,1-2.54,1.38h-9l-.06,1.09h8.9l-1.45,1.58h-2.24v1.85l-8.55.15-.18.6h8.73v2.85c-.06,1.09-2.67.79-2.67.79,2,.42,1.33.12,2.36,1.82s3.58-.55,3.58-.55v-4.91h6.85c1.87,0,2.24-.6,2.24-.6C161.43,160.13,159.91,159.34,159.49,159.4Z"/><path class="cls-2" d="M183.91,157c-.61-.25-1.58,1.45-1.58,1.45H181v-2.54h1.21V156c2.12.48,2.73-.79,2.73-.79v-4.73a2.13,2.13,0,0,1,.3-.91l-1.82-1.75c-.78-.31-1.94,1.21-1.94,1.21h-2a4,4,0,0,1,1.92-2.55l-3.33.06a5.72,5.72,0,0,0-.94,2.49h-.21c-.28-.27-1.54-1.42-2.61-1.15l.07.18v8.6s2.06.1,3-.78h.52v2.54h-1.7a6.83,6.83,0,0,0-2.34-1.51,2.47,2.47,0,0,0-2.08-1.52c-.79-.06-1.21,1.09-1.21,1.09h-.43v-2.85h2.49a2.53,2.53,0,0,0-.06-1.92,1.66,1.66,0,0,0,1-.14c1.11-1.62-1.6-3.63-2.5-4.23a4.49,4.49,0,0,0,.44-.92l-4.25.06s-1.45,5.28-3.27,8c0,0,.41-.32,1-.85h2v2.85h-2.72l-.12.79H167v2.61a16.53,16.53,0,0,0-2.78-1.7,21,21,0,0,1,.12,4.12c-.22.75,1.27,1.87,2.66.71v1.07c-1.6.28-2.84.52-2.84.52.3,2.73,1.51,3.09,1.51,3.09,1.72-1.49,7.58-4,8.18-4.22v2.65c.49,1.81,2.79-.13,2.79-.13v-6.48h1.27v7.39s0,.91,1.39.91c0,0,1.7.24,1.7-1.94v-6.36h1.33v3.76c-.12.91-.85.85-.85.85.31.18.73.12.73,1.09s.49,1.15.49,1.15a2.06,2.06,0,0,0,2.6-1.46V160a3.57,3.57,0,0,0,.49-1.15A11.82,11.82,0,0,0,183.91,157ZM177,150.43h5.21V152H177Zm0,4.37v-2h5.21v2.66h-4.63A3.61,3.61,0,0,0,177,154.8Zm-11.08-1.94a37.81,37.81,0,0,0,4.28-4.3c.18.35.44.88.8,1.69a3.33,3.33,0,0,0,.56.89,10.8,10.8,0,0,0-2.19,1.72Zm4.23,10.69v-.32L173,159.4s-1.39-1.58-2.18-1.45l-.67,1.86v-2.53h3.7v5.86A25.32,25.32,0,0,0,170.15,163.55Z"/><path class="cls-2" d="M189.78,147.77h3.94s1.27-1,1.81-1a1.62,1.62,0,0,1,1.58,1.33h-7.39Z"/><path class="cls-2" d="M189.78,154.19h3.94s1.27-1,1.81-1a1.62,1.62,0,0,1,1.58,1.33h-7.39Z"/><path class="cls-2" d="M189.78,157.1h3.94s1.27-1,1.81-1a1.62,1.62,0,0,1,1.58,1.33h-7.39Z"/><path class="cls-2" d="M188.9,151h5.69s1.28-1,1.82-1a1.62,1.62,0,0,1,1.58,1.33h-9.15Z"/><path class="cls-2" d="M196.15,159.22c-1-.43-2.06.79-2.06.79l0,.18h-2.4a3.31,3.31,0,0,0-2.68-.85v7.82s2.54,1.69,2.85-1.16v-.24h2.48v.43a1.24,1.24,0,0,0,1.15,1.33,2,2,0,0,0,1.7-.79v-5.27c-.06-.3.48-.91.48-.91Zm-4.24,5.51v-4.18h2.34l.14.49v3.69Z"/><path class="cls-2" d="M209.23,164.19v-4.61s-.78,4.67-2.18,4.73a18.52,18.52,0,0,1-4.84-.06S202,161.16,202,156v-.37h4.43v1.64c2.24,1,3-1.64,3-1.64V150a5.34,5.34,0,0,1,.42-1.7L207.05,147l-1.09.79h-6.72l-.25.54h6.85l.55.73V155h-7.27v10s-.18,2.19,4.66,2.19c0,0,6.18.42,6.36-1.4C210.14,165.76,210.69,164.73,209.23,164.19Z"/><path class="cls-3" d="M64.13,184.3h2.8v19h9.2v2.34h-12Z"/><path class="cls-3" d="M78.23,184.3H89.94v2.33H81v6.71h8.41v2.34H81v7.66h9.3v2.34H78.23Z"/><path class="cls-3" d="M92.93,184.3h11.71v2.33H95.72v6.71h8.41v2.34H95.72v7.66H105v2.34H92.93Z"/><path class="cls-3" d="M118.16,184.3H121v10.36H121l7.84-10.36H132l-6.86,8.92,7.43,12.46h-3.11l-6.13-10.3-2.35,3v7.28h-2.79Z"/><path class="cls-3" d="M158.67,184.14l-4.54,17h-.06l-4.54-17h-4.7V199.4c0,2.88-1,4.44-4.07,4.44-2.91,0-4-1.47-4-4.62v-15h-2.94v15c0,4.41,2.2,6.77,7,6.77s7-2.66,7-6.77v-12l4.92,18.35h2.79l5-18.69h.06v18.69h2.8V184.14Z"/><path class="cls-3" d="M177.56,184.3h2.8v10.36h.06l7.84-10.36h3.11l-6.86,8.92L192,205.68h-3.12l-6.12-10.3-2.35,3v7.28h-2.8Z"/><path class="cls-3" d="M193.44,184.3h11.71v2.33h-8.92v6.71h8.41v2.34h-8.41v7.66h9.3v2.34H193.44Z"/><path class="cls-3" d="M208.14,184.3h11.71v2.33h-8.92v6.71h8.41v2.34h-8.41v7.66h9.3v2.34H208.14Z"/></svg>